# xmcd
#
# Track frame offsets: 
#        150
#        14150
#        30704
#        44460
#        57568
#        73769
#        92123
#        110466
#        129598
#        144798
#
# Disc length: 2283 seconds
#
# Revision: 0
# Processed by: cddbd v1.5.2PL0 Copyright (c) Steve Scherf et al.
# Submitted via: ExactAudioCopy v0.95a5
#
DISCID=9108e90a
DTITLE=Drew Pilgram - Magnetic Sideways Pull_Promo
DYEAR=1900
DGENRE=Acoustic
TTITLE0=Nature Of The Drug
TTITLE1=Keen Impressionable Fool
TTITLE2=Shades Of Grey
TTITLE3=Grow Back Strong
TTITLE4=The Wrong Time
TTITLE5=You'll Be Free
TTITLE6=The Hard Times
TTITLE7=Magnetic Sideways Pull
TTITLE8=This Place Is Dead
TTITLE9=Peace Safety Harmony
EXTD=
EXTT0=
EXTT1=
EXTT2=
EXTT3=
EXTT4=
EXTT5=
EXTT6=
EXTT7=
EXTT8=
EXTT9=
PLAYORDER=
